# xmcd
#
# Track frame offsets:
#	150
#	1636
#	16347
#	26205
#	39600
#	50175
#	62160
#	75150
#	86744
#	101576
#	113931
#	124784
#
# Disc length: 1952 seconds
#
# Revision: 0
# Processed by: cddbd v1.5.1PL0 Copyright (c) Steve Scherf et al.
# Submitted via: MusicWizard 7.1.1b
#
DISCID=92079e0c
DTITLE=Waylon Jennings - A Man Called Hoss
DYEAR=1987
DGENRE=Country
TTITLE0=Prologue
TTITLE1=Chapter 01...Childhood - Intro
TTITLE2=Chapter 01...Childhood - Littlefield
TTITLE3=Chapter 02...Texas - You'll Never Take Texas Out Of Me
TTITLE4=Chapter 03...First Love - You Went Out With Rock And Roll
TTITLE5=Chapter 04...Lost Love - A Love Song (I Can't Sing Anymore)
TTITLE6=Chapter 05...Nashville - If Ole Hank Could Only See Us Now
TTITLE7=Chapter 06...Crazies - Rough And Rowdy Days
TTITLE8=Chapter 07...Drugs - I'm Living Proof (There's Life After You)
TTITLE9=Chapter 08...Jessi - You Deserve The Stars In My Crown
TTITLE10=Chapter 09...Reflections - Turn It All Around
TTITLE11=Chapter 10...The Beginning - Where Do We Go From Here
EXTD=Released in 1987 by MCA Records Nashville\nupc 02292551321
EXTT0=
EXTT1=
EXTT2=
EXTT3=
EXTT4=
EXTT5=
EXTT6=
EXTT7=
EXTT8=
EXTT9=
EXTT10=
EXTT11=
PLAYORDER=
